<svg width="32" height="32" viewBox="0 0 32 32" fill="none" xmlns="http://www.w3.org/2000/svg">
<rect width="32" height="32" rx="9.1954" fill="#0091FF"/>
<path d="M17.7048 15.881L17.6511 16.7533L19.3957 16.8607L19.4494 15.9884L18.5771 15.9347L17.7048 15.881ZM12.7835 22.6071C13.2622 22.5454 13.6002 22.1072 13.5384 21.6285C13.4766 21.1498 13.0385 20.8118 12.5598 20.8736L12.6716 21.7404L12.7835 22.6071ZM13.0587 10.5161L13.5877 11.2118L13.0587 10.5161ZM7.57358 19.2043L8.37499 18.8556L7.57358 19.2043ZM17.7905 11.3526L17.065 11.8399V11.8399L17.7905 11.3526ZM11.8776 12.0049L11.0783 11.6516L11.8776 12.0049ZM11.0582 12.6676L10.906 11.807L11.0582 12.6676ZM13.0587 10.5161L12.5297 9.82044C11.7425 10.419 11.3094 11.1286 11.0783 11.6516L11.8776 12.0049L12.677 12.3581C12.8197 12.0354 13.0901 11.5902 13.5877 11.2118L13.0587 10.5161ZM11.0582 12.6676L10.906 11.807C10.1552 11.9398 8.87646 12.3105 7.88286 13.3773L8.5224 13.9729L9.16194 14.5686C9.7867 13.8978 10.6347 13.63 11.2104 13.5282L11.0582 12.6676ZM8.5224 13.9729L7.88286 13.3773C6.40917 14.9595 5.77968 17.2717 6.77217 19.553L7.57358 19.2043L8.37499 18.8556C7.69445 17.2914 8.1006 15.7081 9.16194 14.5686L8.5224 13.9729ZM18.5771 15.9347C19.4494 15.9884 19.4494 15.9883 19.4494 15.9881C19.4494 15.988 19.4494 15.9878 19.4495 15.9877C19.4495 15.9874 19.4495 15.9871 19.4495 15.9867C19.4496 15.9859 19.4496 15.9849 19.4497 15.9838C19.4498 15.9815 19.45 15.9784 19.4502 15.9746C19.4506 15.9671 19.4512 15.9565 19.4519 15.9432C19.4532 15.9166 19.455 15.8787 19.4568 15.8307C19.4604 15.7349 19.4643 15.5986 19.4658 15.4313C19.4687 15.0978 19.4618 14.6358 19.4223 14.1231C19.3472 13.1496 19.1432 11.7991 18.5161 10.8653L17.7905 11.3526L17.065 11.8399C17.4168 12.3637 17.606 13.3043 17.6795 14.2574C17.7143 14.708 17.7205 15.1183 17.7179 15.4161C17.7166 15.5646 17.7132 15.6837 17.7101 15.7645C17.7086 15.8048 17.7072 15.8355 17.7062 15.8553C17.7057 15.8652 17.7053 15.8724 17.705 15.8768C17.7049 15.8789 17.7048 15.8804 17.7048 15.8811C17.7048 15.8814 17.7047 15.8816 17.7047 15.8816C17.7047 15.8816 17.7047 15.8815 17.7048 15.8814C17.7048 15.8814 17.7048 15.8813 17.7048 15.8813C17.7048 15.8811 17.7048 15.881 18.5771 15.9347ZM17.7905 11.3526L18.5161 10.8653C17.7878 9.781 16.6562 9.23772 15.5634 9.09826C14.4888 8.96112 13.345 9.20044 12.5297 9.82044L13.0587 10.5161L13.5877 11.2118C13.971 10.9204 14.6313 10.7414 15.3421 10.8321C16.0346 10.9205 16.6697 11.2512 17.065 11.8399L17.7905 11.3526ZM7.57358 19.2043L6.77217 19.553C7.55813 21.3595 9.67669 23.008 12.7835 22.6071L12.6716 21.7404L12.5598 20.8736C10.248 21.1719 8.86008 19.9706 8.37499 18.8556L7.57358 19.2043ZM11.8776 12.0049L11.0783 11.6516C11.0372 11.7444 10.9491 11.7994 10.906 11.807L11.0582 12.6676L11.2104 13.5282C11.8827 13.4094 12.4244 12.9299 12.677 12.3581L11.8776 12.0049Z" fill="white"/>
<path d="M20.7625 12.442C20.3089 12.2768 20.0752 11.7752 20.2404 11.3216C20.4056 10.8681 20.9072 10.6344 21.3608 10.7996L21.0616 11.6208L20.7625 12.442ZM13.4086 16.6024L13.4086 15.7285L15.1566 15.7285L15.1566 16.6024L14.2826 16.6024L13.4086 16.6024ZM23.6461 13.4062L24.3525 12.8917V12.8917L23.6461 13.4062ZM19.4385 21.9585L19.4385 22.8325L19.4385 21.9585ZM22.7346 20.8598L23.2683 21.552V21.552L22.7346 20.8598ZM23.6461 13.4062L24.3525 12.8917C25.4032 14.3344 25.9639 15.9997 25.5489 17.9115L24.6948 17.7261L23.8407 17.5407C24.125 16.2313 23.7739 15.0663 22.9396 13.9207L23.6461 13.4062ZM21.0616 11.6208C21.3608 10.7996 21.3609 10.7997 21.3611 10.7997C21.3612 10.7998 21.3614 10.7998 21.3615 10.7999C21.3618 10.8 21.3621 10.8001 21.3624 10.8002C21.3631 10.8005 21.3639 10.8008 21.3648 10.8011C21.3666 10.8017 21.3688 10.8026 21.3714 10.8035C21.3766 10.8055 21.3835 10.8081 21.392 10.8113C21.4089 10.8177 21.4323 10.8267 21.4613 10.8383C21.5193 10.8613 21.6003 10.8946 21.699 10.9379C21.8957 11.0242 22.1663 11.152 22.4666 11.3199C23.048 11.6449 23.8239 12.1658 24.3525 12.8917L23.6461 13.4062L22.9396 13.9207C22.6317 13.498 22.1154 13.1261 21.6137 12.8456C21.3724 12.7107 21.1538 12.6075 20.9966 12.5385C20.9184 12.5042 20.8563 12.4788 20.8154 12.4625C20.795 12.4544 20.78 12.4486 20.7709 12.4452C20.7664 12.4434 20.7634 12.4423 20.7619 12.4418C20.7612 12.4415 20.7609 12.4414 20.761 12.4414C20.761 12.4414 20.7612 12.4415 20.7614 12.4416C20.7615 12.4416 20.7617 12.4417 20.7619 12.4417C20.7619 12.4418 20.7621 12.4418 20.7621 12.4418C20.7623 12.4419 20.7625 12.442 21.0616 11.6208ZM14.7191 18.8497L13.9128 19.1869C13.7735 18.8539 13.6333 18.5259 13.5406 18.1151C13.4475 17.7022 13.4086 17.2405 13.4086 16.6024L14.2826 16.6024L15.1566 16.6024C15.1566 17.1754 15.1924 17.494 15.2457 17.7304C15.2995 17.9687 15.3775 18.1589 15.5254 18.5125L14.7191 18.8497ZM19.4385 21.9585L19.4385 22.8325C18.0408 22.8325 16.9647 22.3484 16.0297 21.7434L16.5045 21.0097L16.9793 20.2759C17.7422 20.7696 18.4891 21.0846 19.4385 21.0846L19.4385 21.9585ZM16.5045 21.0097L16.0297 21.7434C15.0054 21.0806 14.2542 20.0032 13.9128 19.1869L14.7191 18.8497L15.5254 18.5125C15.7583 19.0695 16.3056 19.84 16.9793 20.2759L16.5045 21.0097ZM22.7346 20.8598L23.2683 21.552C22.116 22.4405 20.9753 22.8325 19.4385 22.8325L19.4385 21.9585L19.4385 21.0846C20.5985 21.0846 21.3619 20.8147 22.201 20.1677L22.7346 20.8598ZM24.6948 17.7261L25.5489 17.9115C25.1472 19.762 24.2462 20.7979 23.2683 21.552L22.7346 20.8598L22.201 20.1677C22.921 19.6125 23.5432 18.9113 23.8407 17.5407L24.6948 17.7261Z" fill="white"/>
<path d="M12.4547 15.8738C12.3912 15.873 12.3575 15.7984 12.3988 15.7502L14.2142 13.6305C14.2647 13.5716 14.3562 13.5725 14.4055 13.6324L16.1875 15.7987C16.228 15.8479 16.1924 15.922 16.1287 15.9212L12.4547 15.8738Z" fill="white"/>
<path d="M20.4052 16.507C20.4688 16.5075 20.5029 16.5819 20.4618 16.6304L18.6569 18.759C18.6067 18.8182 18.5153 18.8178 18.4657 18.7581L16.6729 16.6008C16.6321 16.5518 16.6673 16.4775 16.7311 16.478L20.4052 16.507Z" fill="white"/>
</svg>
