<svg width="105" height="28" viewBox="0 0 105 28" fill="none" xmlns="http://www.w3.org/2000/svg">
<rect width="27.5442" height="27.5442" rx="7.91501" fill="#0091FF" fill-opacity="0.1"/>
<rect x="0.198686" y="0.198686" width="27.1469" height="27.1469" rx="7.71633" stroke="url(#paint0_linear_230_148)" stroke-opacity="0.5" stroke-width="0.397372"/>
<path d="M15.2394 13.6698L15.1932 14.4206L16.6949 14.5131L16.7411 13.7622L15.9902 13.716L15.2394 13.6698ZM11.0033 19.4594C11.4154 19.4062 11.7063 19.029 11.6532 18.617C11.6 18.2049 11.2229 17.914 10.8108 17.9672L10.9071 18.7133L11.0033 19.4594ZM11.2403 9.05191L11.6956 9.65072L11.2403 9.05191ZM6.51887 16.5303L7.20869 16.2302L6.51887 16.5303ZM15.3132 9.77193L14.6887 10.1914V10.1914L15.3132 9.77193ZM10.2236 10.3334L10.9117 10.6375L10.2236 10.3334ZM9.5183 10.9038L9.3873 10.1631L9.5183 10.9038ZM11.2403 9.05191L10.7849 8.4531C10.1073 8.96834 9.73449 9.57913 9.53555 10.0293L10.2236 10.3334L10.9117 10.6375C11.0345 10.3596 11.2672 9.97646 11.6956 9.65072L11.2403 9.05191ZM9.5183 10.9038L9.3873 10.1631C8.74101 10.2773 7.64034 10.5964 6.7851 11.5147L7.33558 12.0274L7.88607 12.5401C8.42384 11.9627 9.1538 11.7322 9.64929 11.6446L9.5183 10.9038ZM7.33558 12.0274L6.7851 11.5147C5.5166 12.8766 4.97476 14.8668 5.82906 16.8304L6.51887 16.5303L7.20869 16.2302C6.62292 14.8838 6.97251 13.521 7.88607 12.5401L7.33558 12.0274ZM15.9902 13.716C16.7411 13.7622 16.7411 13.7621 16.7411 13.762C16.7411 13.7619 16.7411 13.7617 16.7411 13.7616C16.7411 13.7614 16.7412 13.7611 16.7412 13.7607C16.7412 13.7601 16.7413 13.7592 16.7413 13.7583C16.7414 13.7563 16.7416 13.7536 16.7418 13.7504C16.7421 13.7439 16.7426 13.7348 16.7432 13.7233C16.7444 13.7004 16.7459 13.6678 16.7474 13.6265C16.7506 13.544 16.7539 13.4267 16.7552 13.2827C16.7577 12.9956 16.7518 12.598 16.7178 12.1566C16.6531 11.3187 16.4775 10.1562 15.9377 9.35251L15.3132 9.77193L14.6887 10.1914C14.9915 10.6422 15.1544 11.4518 15.2177 12.2723C15.2476 12.6601 15.2529 13.0133 15.2507 13.2697C15.2496 13.3974 15.2466 13.5 15.244 13.5695C15.2427 13.6042 15.2414 13.6306 15.2406 13.6477C15.2401 13.6562 15.2398 13.6624 15.2396 13.6661C15.2395 13.668 15.2394 13.6692 15.2394 13.6699C15.2394 13.6702 15.2394 13.6703 15.2394 13.6703C15.2394 13.6703 15.2394 13.6702 15.2394 13.6702C15.2394 13.6701 15.2394 13.67 15.2394 13.67C15.2394 13.6699 15.2394 13.6698 15.9902 13.716ZM15.3132 9.77193L15.9377 9.35251C15.3109 8.41915 14.3368 7.95152 13.3962 7.83148C12.4712 7.71343 11.4867 7.91943 10.7849 8.4531L11.2403 9.05191L11.6956 9.65072C12.0255 9.39987 12.5939 9.24584 13.2057 9.32392C13.8018 9.4 14.3484 9.68464 14.6887 10.1914L15.3132 9.77193ZM6.51887 16.5303L5.82906 16.8304C6.50558 18.3855 8.32914 19.8044 11.0033 19.4594L10.9071 18.7133L10.8108 17.9672C8.82088 18.2239 7.62624 17.19 7.20869 16.2302L6.51887 16.5303ZM10.2236 10.3334L9.53555 10.0293C9.50025 10.1092 9.42441 10.1565 9.3873 10.1631L9.5183 10.9038L9.64929 11.6446C10.228 11.5423 10.6942 11.1296 10.9117 10.6375L10.2236 10.3334Z" fill="#0091FF"/>
<path d="M17.8714 10.7096C17.481 10.5674 17.2799 10.1356 17.4221 9.74526C17.5643 9.35488 17.996 9.1537 18.3864 9.29591L18.1289 10.0027L17.8714 10.7096ZM11.5415 14.2907L11.5415 13.5385L13.0461 13.5385L13.0461 14.2907L12.2938 14.2907L11.5415 14.2907ZM20.3535 11.5395L20.9616 11.0967L20.9616 11.0967L20.3535 11.5395ZM19.569 17.9553L20.0283 18.5511V18.5511L19.569 17.9553ZM20.3535 11.5395L20.9616 11.0967C21.866 12.3385 22.3486 13.7719 21.9914 15.4175L21.2562 15.2579L20.5211 15.0983C20.7657 13.9712 20.4635 12.9685 19.7454 11.9824L20.3535 11.5395ZM18.1289 10.0027C18.3864 9.29591 18.3866 9.29597 18.3867 9.29602C18.3868 9.29605 18.3869 9.29611 18.3871 9.29615C18.3873 9.29624 18.3876 9.29634 18.3879 9.29644C18.3884 9.29665 18.3891 9.2969 18.3899 9.29718C18.3914 9.29774 18.3933 9.29844 18.3955 9.29928C18.4 9.30096 18.406 9.30318 18.4133 9.30596C18.4279 9.31151 18.448 9.31926 18.4729 9.32919C18.5228 9.34903 18.5926 9.37768 18.6775 9.41496C18.8468 9.48925 19.0798 9.59922 19.3383 9.74375C19.8387 10.0235 20.5066 10.4718 20.9616 11.0967L20.3535 11.5395L19.7454 11.9824C19.4804 11.6185 19.0359 11.2984 18.6041 11.057C18.3965 10.9409 18.2083 10.8521 18.073 10.7927C18.0056 10.7632 17.9522 10.7413 17.917 10.7273C17.8994 10.7203 17.8865 10.7153 17.8787 10.7123C17.8748 10.7108 17.8722 10.7099 17.871 10.7094C17.8703 10.7092 17.8701 10.7091 17.8701 10.7091C17.8702 10.7091 17.8703 10.7092 17.8705 10.7093C17.8706 10.7093 17.8707 10.7093 17.8709 10.7094C17.871 10.7094 17.8711 10.7095 17.8711 10.7095C17.8713 10.7095 17.8714 10.7096 18.1289 10.0027ZM12.6695 16.2251L11.9755 16.5153C11.8556 16.2287 11.7349 15.9464 11.6552 15.5927C11.575 15.2374 11.5415 14.84 11.5415 14.2907L12.2938 14.2907L13.0461 14.2907C13.0461 14.7839 13.0769 15.0582 13.1228 15.2616C13.1691 15.4668 13.2363 15.6304 13.3636 15.9349L12.6695 16.2251ZM16.7318 18.9011L16.7318 19.6533C15.5287 19.6533 14.6025 19.2367 13.7977 18.7159L14.2063 18.0843L14.615 17.4527C15.2717 17.8777 15.9146 18.1488 16.7318 18.1488L16.7318 18.9011ZM14.2063 18.0843L13.7977 18.7159C12.9159 18.1454 12.2694 17.218 11.9755 16.5153L12.6695 16.2251L13.3636 15.9349C13.5641 16.4143 14.0352 17.0775 14.615 17.4527L14.2063 18.0843ZM19.569 17.9553L20.0283 18.5511C19.0365 19.3159 18.0546 19.6533 16.7318 19.6533L16.7318 18.9011L16.7318 18.1488C17.7303 18.1488 18.3874 17.9165 19.1096 17.3596L19.569 17.9553ZM21.2562 15.2579L21.9914 15.4175C21.6456 17.0104 20.8701 17.902 20.0283 18.5511L19.569 17.9553L19.1096 17.3596C19.7294 16.8817 20.265 16.2781 20.5211 15.0983L21.2562 15.2579Z" fill="#0091FF"/>
<path d="M10.7202 13.6634C10.6656 13.6627 10.6365 13.5985 10.6721 13.557L12.2345 11.7327C12.278 11.682 12.3567 11.6828 12.3992 11.7344L13.9328 13.5987C13.9677 13.6411 13.9371 13.7049 13.8822 13.7042L10.7202 13.6634Z" fill="#0091FF"/>
<path d="M17.564 14.2085C17.6187 14.2089 17.6481 14.2729 17.6127 14.3146L16.0594 16.1467C16.0162 16.1976 15.9374 16.1972 15.8947 16.1459L14.3518 14.2892C14.3167 14.247 14.347 14.183 14.4019 14.1835L17.564 14.2085Z" fill="#0091FF"/>
<mask id="path-7-outside-1_230_148" maskUnits="userSpaceOnUse" x="34.1168" y="7.55786" width="59" height="15" fill="black">
<rect fill="white" x="34.1168" y="7.55786" width="59" height="15"/>
<path d="M71.7506 14.2991C72.136 14.2993 72.4488 14.6118 72.4489 14.9973C72.4489 15.3828 72.1361 15.6953 71.7506 15.6956H65.3024V20.9084C65.3024 21.2644 65.0137 21.5529 64.6578 21.553C64.3019 21.553 64.0133 21.2644 64.0133 20.9084V15.0002C64.0133 14.6131 64.3274 14.2991 64.7145 14.2991H71.7506ZM84.7633 8.59985C85.1513 8.59985 85.4657 8.91497 85.4645 9.30298L85.4293 20.0881H91.9996C92.3796 20.0881 92.6908 20.391 92.7008 20.7708L92.7028 20.8342C92.7129 21.2282 92.3957 21.553 92.0016 21.553H84.7428C84.3559 21.5528 84.0418 21.2397 84.0416 20.8528V9.30103C84.0416 8.91399 84.3558 8.59998 84.7428 8.59985H84.7633ZM39.9469 8.55786C40.6165 8.55786 41.3159 8.66136 42.025 8.86646C42.5282 9.02932 43.046 9.26986 43.486 9.52075C43.7528 9.67295 43.8437 10.0057 43.7145 10.2844C43.5682 10.5997 43.1736 10.709 42.8698 10.5403C42.4687 10.3176 42.0234 10.1131 41.649 10.0032C41.0664 9.83209 40.4935 9.74536 39.9469 9.74536C38.8437 9.74542 38.0063 9.96385 37.4586 10.3948C36.9117 10.8125 36.6462 11.348 36.6461 12.0315C36.6461 12.5426 36.7879 12.9442 37.068 13.2239C37.3667 13.5386 37.7327 13.7726 38.1871 13.9407C38.6543 14.1201 39.3154 14.3141 40.0992 14.5012C41.0813 14.7511 41.7828 14.9615 42.3073 15.1643C42.849 15.3807 43.3396 15.726 43.7653 16.1897C44.1878 16.6501 44.4021 17.2787 44.402 18.0579C44.402 18.6773 44.224 19.2676 43.8737 19.8118C43.5238 20.3555 42.9925 20.78 42.2946 21.0735C41.6141 21.3776 40.7523 21.5325 39.734 21.5325C38.7475 21.5325 37.8709 21.3769 37.0543 21.0579C36.388 20.7975 35.7664 20.4061 35.2985 19.9983C35.0922 19.8186 35.063 19.5164 35.2047 19.2825C35.3946 18.9695 35.8362 18.9226 36.1227 19.1506C36.5141 19.4623 36.9883 19.7589 37.443 19.9319C38.1627 20.2057 38.9277 20.345 39.7164 20.345C40.8657 20.3449 41.7275 20.1315 42.278 19.7112C42.8355 19.3016 43.106 18.7786 43.1061 18.1116C43.1061 17.6162 42.9627 17.2142 42.6803 16.9163C42.377 16.6135 41.9908 16.3657 41.5631 16.2014C41.1295 16.0411 40.5274 15.8688 39.6696 15.6594C38.834 15.4668 38.0853 15.2439 37.4449 14.9963C36.8607 14.7705 36.3777 14.4337 35.9674 13.968C35.5525 13.4972 35.3502 12.8695 35.3502 12.0491C35.3503 11.4114 35.5225 10.8209 35.861 10.2952C36.2074 9.75738 36.7251 9.32802 37.399 9.0188C38.1073 8.71296 38.9642 8.5579 39.9469 8.55786ZM77.8033 8.62817C78.1905 8.62817 78.5045 8.94223 78.5045 9.32935V20.8245C78.5044 21.2115 78.1904 21.5256 77.8033 21.5256C77.4165 21.5254 77.1033 21.2113 77.1031 20.8245V9.32935C77.1031 8.94237 77.4164 8.6284 77.8033 8.62817ZM71.776 8.62817C72.163 8.62832 72.4762 8.94232 72.4762 9.32935C72.4759 9.71615 72.1628 10.0294 71.776 10.0295H64.6959C64.3091 10.0293 63.996 9.71612 63.9957 9.32935C63.9957 8.94235 64.309 8.62837 64.6959 8.62817H71.776Z"/>
</mask>
<path d="M71.7506 14.2991C72.136 14.2993 72.4488 14.6118 72.4489 14.9973C72.4489 15.3828 72.1361 15.6953 71.7506 15.6956H65.3024V20.9084C65.3024 21.2644 65.0137 21.5529 64.6578 21.553C64.3019 21.553 64.0133 21.2644 64.0133 20.9084V15.0002C64.0133 14.6131 64.3274 14.2991 64.7145 14.2991H71.7506ZM84.7633 8.59985C85.1513 8.59985 85.4657 8.91497 85.4645 9.30298L85.4293 20.0881H91.9996C92.3796 20.0881 92.6908 20.391 92.7008 20.7708L92.7028 20.8342C92.7129 21.2282 92.3957 21.553 92.0016 21.553H84.7428C84.3559 21.5528 84.0418 21.2397 84.0416 20.8528V9.30103C84.0416 8.91399 84.3558 8.59998 84.7428 8.59985H84.7633ZM39.9469 8.55786C40.6165 8.55786 41.3159 8.66136 42.025 8.86646C42.5282 9.02932 43.046 9.26986 43.486 9.52075C43.7528 9.67295 43.8437 10.0057 43.7145 10.2844C43.5682 10.5997 43.1736 10.709 42.8698 10.5403C42.4687 10.3176 42.0234 10.1131 41.649 10.0032C41.0664 9.83209 40.4935 9.74536 39.9469 9.74536C38.8437 9.74542 38.0063 9.96385 37.4586 10.3948C36.9117 10.8125 36.6462 11.348 36.6461 12.0315C36.6461 12.5426 36.7879 12.9442 37.068 13.2239C37.3667 13.5386 37.7327 13.7726 38.1871 13.9407C38.6543 14.1201 39.3154 14.3141 40.0992 14.5012C41.0813 14.7511 41.7828 14.9615 42.3073 15.1643C42.849 15.3807 43.3396 15.726 43.7653 16.1897C44.1878 16.6501 44.4021 17.2787 44.402 18.0579C44.402 18.6773 44.224 19.2676 43.8737 19.8118C43.5238 20.3555 42.9925 20.78 42.2946 21.0735C41.6141 21.3776 40.7523 21.5325 39.734 21.5325C38.7475 21.5325 37.8709 21.3769 37.0543 21.0579C36.388 20.7975 35.7664 20.4061 35.2985 19.9983C35.0922 19.8186 35.063 19.5164 35.2047 19.2825C35.3946 18.9695 35.8362 18.9226 36.1227 19.1506C36.5141 19.4623 36.9883 19.7589 37.443 19.9319C38.1627 20.2057 38.9277 20.345 39.7164 20.345C40.8657 20.3449 41.7275 20.1315 42.278 19.7112C42.8355 19.3016 43.106 18.7786 43.1061 18.1116C43.1061 17.6162 42.9627 17.2142 42.6803 16.9163C42.377 16.6135 41.9908 16.3657 41.5631 16.2014C41.1295 16.0411 40.5274 15.8688 39.6696 15.6594C38.834 15.4668 38.0853 15.2439 37.4449 14.9963C36.8607 14.7705 36.3777 14.4337 35.9674 13.968C35.5525 13.4972 35.3502 12.8695 35.3502 12.0491C35.3503 11.4114 35.5225 10.8209 35.861 10.2952C36.2074 9.75738 36.7251 9.32802 37.399 9.0188C38.1073 8.71296 38.9642 8.5579 39.9469 8.55786ZM77.8033 8.62817C78.1905 8.62817 78.5045 8.94223 78.5045 9.32935V20.8245C78.5044 21.2115 78.1904 21.5256 77.8033 21.5256C77.4165 21.5254 77.1033 21.2113 77.1031 20.8245V9.32935C77.1031 8.94237 77.4164 8.6284 77.8033 8.62817ZM71.776 8.62817C72.163 8.62832 72.4762 8.94232 72.4762 9.32935C72.4759 9.71615 72.1628 10.0294 71.776 10.0295H64.6959C64.3091 10.0293 63.996 9.71612 63.9957 9.32935C63.9957 8.94235 64.309 8.62837 64.6959 8.62817H71.776Z" fill="#0091FF"/>
<path d="M71.7506 14.2991L71.7507 14.0888H71.7506V14.2991ZM72.4489 14.9973H72.6591V14.9973L72.4489 14.9973ZM71.7506 15.6956V15.9058H71.7507L71.7506 15.6956ZM65.3024 15.6956V15.4853H65.0921V15.6956H65.3024ZM64.6578 21.553V21.7633H64.6579L64.6578 21.553ZM85.4645 9.30298L85.2542 9.30229V9.30229L85.4645 9.30298ZM85.4293 20.0881L85.219 20.0874L85.2184 20.2984H85.4293V20.0881ZM92.7008 20.7708L92.4906 20.7763L92.4906 20.7772L92.7008 20.7708ZM92.7028 20.8342L92.913 20.8288L92.9129 20.8278L92.7028 20.8342ZM84.7428 21.553L84.7427 21.7633H84.7428V21.553ZM84.0416 20.8528H83.8313V20.8529L84.0416 20.8528ZM84.7428 8.59985V8.38957L84.7427 8.38957L84.7428 8.59985ZM39.9469 8.55786V8.34758H39.9469L39.9469 8.55786ZM42.025 8.86646L42.0898 8.66629L42.0835 8.66446L42.025 8.86646ZM43.486 9.52075L43.5901 9.33809L43.5901 9.33809L43.486 9.52075ZM43.7145 10.2844L43.9052 10.3729L43.9053 10.3729L43.7145 10.2844ZM42.8698 10.5403L42.9718 10.3564L42.9718 10.3564L42.8698 10.5403ZM41.649 10.0032L41.7083 9.80142L41.7083 9.80141L41.649 10.0032ZM39.9469 9.74536V9.53508H39.9469L39.9469 9.74536ZM37.4586 10.3948L37.5863 10.5619L37.5886 10.56L37.4586 10.3948ZM36.6461 12.0315L36.4358 12.0315V12.0315H36.6461ZM37.068 13.2239L37.2206 13.0791L37.2166 13.0751L37.068 13.2239ZM38.1871 13.9407L38.2625 13.7444L38.2601 13.7434L38.1871 13.9407ZM40.0992 14.5012L40.1511 14.2974L40.1481 14.2967L40.0992 14.5012ZM42.3073 15.1643L42.3853 14.969L42.3831 14.9682L42.3073 15.1643ZM43.7653 16.1897L43.9202 16.0475L43.9202 16.0475L43.7653 16.1897ZM44.402 18.0579L44.1917 18.0578V18.0579H44.402ZM43.8737 19.8118L43.6968 19.698L43.6968 19.698L43.8737 19.8118ZM42.2946 21.0735L42.213 20.8796L42.2088 20.8815L42.2946 21.0735ZM39.734 21.5325L39.734 21.7428H39.734V21.5325ZM37.0543 21.0579L36.9778 21.2537L36.9778 21.2537L37.0543 21.0579ZM35.2985 19.9983L35.1603 20.1568L35.1603 20.1568L35.2985 19.9983ZM35.2047 19.2825L35.0249 19.1734L35.0249 19.1735L35.2047 19.2825ZM36.1227 19.1506L36.2537 18.9861L36.2536 18.9861L36.1227 19.1506ZM37.443 19.9319L37.5178 19.7353L37.5178 19.7353L37.443 19.9319ZM39.7164 20.345V20.5553H39.7164L39.7164 20.345ZM42.278 19.7112L42.1534 19.5417L42.1503 19.5441L42.278 19.7112ZM43.1061 18.1116L43.3164 18.1116V18.1116H43.1061ZM42.6803 16.9163L42.833 16.7715L42.8289 16.7674L42.6803 16.9163ZM41.5631 16.2014L41.6385 16.0051L41.636 16.0042L41.5631 16.2014ZM39.6696 15.6594L39.7194 15.4551L39.7168 15.4545L39.6696 15.6594ZM37.4449 14.9963L37.5208 14.8002L37.5208 14.8002L37.4449 14.9963ZM35.9674 13.968L36.1252 13.829L36.1252 13.829L35.9674 13.968ZM35.3502 12.0491L35.1399 12.0491V12.0491H35.3502ZM35.861 10.2952L35.6842 10.1813L35.6841 10.1813L35.861 10.2952ZM37.399 9.0188L37.3157 8.8257L37.3114 8.82768L37.399 9.0188ZM77.8033 8.62817V8.41789L77.8032 8.41789L77.8033 8.62817ZM78.5045 20.8245L78.7148 20.8245V20.8245H78.5045ZM77.8033 21.5256L77.8032 21.7359H77.8033V21.5256ZM77.1031 20.8245H76.8929V20.8245L77.1031 20.8245ZM71.776 8.62817L71.7761 8.41789H71.776V8.62817ZM72.4762 9.32935L72.6865 9.32949V9.32935H72.4762ZM71.776 10.0295V10.2398L71.7761 10.2398L71.776 10.0295ZM64.6959 10.0295L64.6958 10.2398H64.6959V10.0295ZM63.9957 9.32935H63.7854V9.32949L63.9957 9.32935ZM64.6959 8.62817V8.41789L64.6958 8.41789L64.6959 8.62817ZM71.7506 14.2991L71.7505 14.5094C72.02 14.5095 72.2386 14.7281 72.2386 14.9973L72.4489 14.9973L72.6591 14.9973C72.6591 14.4956 72.2521 14.0891 71.7507 14.0888L71.7506 14.2991ZM72.4489 14.9973H72.2386C72.2386 15.2666 72.02 15.4851 71.7505 15.4853L71.7506 15.6956L71.7507 15.9058C72.2521 15.9055 72.6591 15.4991 72.6591 14.9973H72.4489ZM71.7506 15.6956V15.4853H65.3024V15.6956V15.9058H71.7506V15.6956ZM65.3024 15.6956H65.0921V20.9084H65.3024H65.5126V15.6956H65.3024ZM65.3024 20.9084H65.0921C65.0921 21.1482 64.8976 21.3427 64.6578 21.3427L64.6578 21.553L64.6579 21.7633C65.1299 21.7632 65.5126 21.3805 65.5126 20.9084H65.3024ZM64.6578 21.553V21.3427C64.418 21.3427 64.2236 21.1482 64.2236 20.9084H64.0133H63.803C63.803 21.3805 64.1858 21.7633 64.6578 21.7633V21.553ZM64.0133 20.9084H64.2236V15.0002H64.0133H63.803V20.9084H64.0133ZM64.0133 15.0002H64.2236C64.2236 14.7293 64.4435 14.5094 64.7145 14.5094V14.2991V14.0888C64.2112 14.0888 63.803 14.497 63.803 15.0002H64.0133ZM64.7145 14.2991V14.5094H71.7506V14.2991V14.0888H64.7145V14.2991ZM84.7633 8.59985V8.81013C85.035 8.81013 85.2551 9.03082 85.2542 9.30229L85.4645 9.30298L85.6748 9.30367C85.6764 8.79912 85.2676 8.38957 84.7633 8.38957V8.59985ZM85.4645 9.30298L85.2542 9.30229L85.219 20.0874L85.4293 20.0881L85.6396 20.0888L85.6748 9.30366L85.4645 9.30298ZM85.4293 20.0881V20.2984H91.9996V20.0881V19.8779H85.4293V20.0881ZM91.9996 20.0881V20.2984C92.2658 20.2984 92.4836 20.5106 92.4906 20.7763L92.7008 20.7708L92.911 20.7652C92.898 20.2714 92.4934 19.8779 91.9996 19.8779V20.0881ZM92.7008 20.7708L92.4906 20.7772L92.4926 20.8407L92.7028 20.8342L92.9129 20.8278L92.911 20.7643L92.7008 20.7708ZM92.7028 20.8342L92.4925 20.8396C92.4996 21.1152 92.2777 21.3427 92.0016 21.3427V21.553V21.7633C92.5137 21.7633 92.9261 21.3413 92.913 20.8288L92.7028 20.8342ZM92.0016 21.553V21.3427H84.7428V21.553V21.7633H92.0016V21.553ZM84.7428 21.553L84.7429 21.3427C84.4717 21.3426 84.252 21.1232 84.2519 20.8527L84.0416 20.8528L83.8313 20.8529C83.8316 21.3562 84.2401 21.7631 84.7427 21.7633L84.7428 21.553ZM84.0416 20.8528H84.2519V9.30103H84.0416H83.8313V20.8528H84.0416ZM84.0416 9.30103H84.2519C84.2519 9.03019 84.4719 8.81022 84.7429 8.81013L84.7428 8.59985L84.7427 8.38957C84.2397 8.38974 83.8313 8.79779 83.8313 9.30103H84.0416ZM84.7428 8.59985V8.81013H84.7633V8.59985V8.38957H84.7428V8.59985ZM39.9469 8.55786V8.76814C40.5949 8.76814 41.2747 8.86833 41.9666 9.06845L42.025 8.86646L42.0835 8.66446C41.3572 8.45439 40.6381 8.34758 39.9469 8.34758V8.55786ZM42.025 8.86646L41.9603 9.06652C42.4474 9.2242 42.952 9.45834 43.3818 9.70342L43.486 9.52075L43.5901 9.33809C43.14 9.08138 42.609 8.83444 42.0898 8.66639L42.025 8.86646ZM43.486 9.52075L43.3818 9.70342C43.5453 9.79669 43.6111 10.0074 43.5237 10.196L43.7145 10.2844L43.9053 10.3729C44.0763 10.004 43.9603 9.54922 43.5901 9.33809L43.486 9.52075ZM43.7145 10.2844L43.5237 10.1959C43.4337 10.39 43.1792 10.4716 42.9718 10.3564L42.8698 10.5403L42.7677 10.7241C43.168 10.9464 43.7027 10.8094 43.9052 10.3729L43.7145 10.2844ZM42.8698 10.5403L42.9718 10.3564C42.5633 10.1297 42.103 9.91734 41.7083 9.80142L41.649 10.0032L41.5898 10.2049C41.9438 10.3089 42.3741 10.5056 42.7677 10.7241L42.8698 10.5403ZM41.649 10.0032L41.7083 9.80141C41.1085 9.62529 40.5156 9.53508 39.9469 9.53508V9.74536V9.95564C40.4713 9.95564 41.0243 10.0389 41.5898 10.2049L41.649 10.0032ZM39.9469 9.74536L39.9469 9.53508C38.8223 9.53514 37.9295 9.75673 37.3286 10.2295L37.4586 10.3948L37.5886 10.56C38.0831 10.171 38.8651 9.9557 39.9469 9.95564L39.9469 9.74536ZM37.4586 10.3948L37.331 10.2277C36.7323 10.6849 36.436 11.282 36.4358 12.0315L36.6461 12.0315L36.8564 12.0315C36.8565 11.4139 37.0911 10.9401 37.5863 10.5619L37.4586 10.3948ZM36.6461 12.0315H36.4358C36.4358 12.5812 36.5892 13.0429 36.9194 13.3727L37.068 13.2239L37.2166 13.0751C36.9867 12.8455 36.8564 12.5039 36.8564 12.0315H36.6461ZM37.068 13.2239L36.9155 13.3686C37.2389 13.7094 37.6333 13.9601 38.1142 14.1379L38.1871 13.9407L38.2601 13.7434C37.8321 13.5852 37.4945 13.3678 37.2205 13.0791L37.068 13.2239ZM38.1871 13.9407L38.1117 14.137C38.5911 14.3211 39.2622 14.5176 40.0504 14.7058L40.0992 14.5012L40.1481 14.2967C39.3686 14.1106 38.7175 13.9191 38.2625 13.7444L38.1871 13.9407ZM40.0992 14.5012L40.0474 14.705C41.0267 14.9542 41.7187 15.1622 42.2314 15.3604L42.3073 15.1643L42.3831 14.9682C41.8469 14.7608 41.1358 14.548 40.1511 14.2974L40.0992 14.5012ZM42.3073 15.1643L42.2293 15.3596C42.7393 15.5633 43.2042 15.8895 43.6103 16.3319L43.7653 16.1897L43.9202 16.0475C43.4749 15.5625 42.9586 15.198 42.3852 14.969L42.3073 15.1643ZM43.7653 16.1897L43.6103 16.3319C43.9891 16.7446 44.1918 17.3178 44.1917 18.0578L44.402 18.0579L44.6123 18.0579C44.6123 17.2397 44.3865 16.5557 43.9202 16.0475L43.7653 16.1897ZM44.402 18.0579H44.1917C44.1917 18.635 44.0264 19.186 43.6968 19.698L43.8737 19.8118L44.0505 19.9256C44.4216 19.3491 44.6123 18.7196 44.6123 18.0579H44.402ZM43.8737 19.8118L43.6968 19.698C43.3736 20.2003 42.8787 20.5997 42.213 20.8796L42.2946 21.0735L42.3761 21.2673C43.1062 20.9603 43.6739 20.5108 44.0505 19.9256L43.8737 19.8118ZM42.2946 21.0735L42.2088 20.8815C41.5632 21.17 40.7328 21.3222 39.734 21.3222V21.5325V21.7428C40.7717 21.7428 41.665 21.5851 42.3803 21.2655L42.2946 21.0735ZM39.734 21.5325L39.734 21.3222C38.7705 21.3222 37.9202 21.1704 37.1308 20.862L37.0543 21.0579L36.9778 21.2537C37.8215 21.5834 38.7245 21.7427 39.734 21.7428L39.734 21.5325ZM37.0543 21.0579L37.1309 20.862C36.488 20.6108 35.8871 20.2323 35.4366 19.8398L35.2985 19.9983L35.1603 20.1568C35.6458 20.5799 36.2881 20.9842 36.9778 21.2537L37.0543 21.0579ZM35.2985 19.9983L35.4366 19.8398C35.3168 19.7353 35.2891 19.5489 35.3846 19.3914L35.2047 19.2825L35.0249 19.1735C34.8368 19.4839 34.8677 19.9018 35.1603 20.1568L35.2985 19.9983ZM35.2047 19.2825L35.3845 19.3915C35.4987 19.2032 35.7889 19.1537 35.9917 19.3152L36.1227 19.1506L36.2536 18.9861C35.8836 18.6916 35.2904 18.7358 35.0249 19.1734L35.2047 19.2825ZM36.1227 19.1506L35.9917 19.3151C36.3946 19.6359 36.8876 19.9456 37.3682 20.1284L37.443 19.9319L37.5178 19.7353C37.089 19.5722 36.6335 19.2886 36.2537 18.9861L36.1227 19.1506ZM37.443 19.9319L37.3682 20.1284C38.1123 20.4115 38.9027 20.5553 39.7164 20.5553V20.345V20.1347C38.9527 20.1347 38.213 19.9998 37.5178 19.7353L37.443 19.9319ZM39.7164 20.345L39.7164 20.5553C40.8841 20.5552 41.8013 20.3398 42.4056 19.8783L42.278 19.7112L42.1503 19.5441C41.6538 19.9233 40.8473 20.1347 39.7164 20.1347L39.7164 20.345ZM42.278 19.7112L42.4025 19.8806C43.0116 19.4331 43.3163 18.8483 43.3164 18.1116L43.1061 18.1116L42.8958 18.1115C42.8957 18.7088 42.6593 19.1701 42.1535 19.5417L42.278 19.7112ZM43.1061 18.1116H43.3164C43.3164 17.5741 43.1597 17.1163 42.8329 16.7716L42.6803 16.9163L42.5277 17.0609C42.7657 17.312 42.8958 17.6584 42.8958 18.1116H43.1061ZM42.6803 16.9163L42.8289 16.7674C42.5035 16.4427 42.092 16.1793 41.6385 16.0051L41.5631 16.2014L41.4877 16.3977C41.8896 16.5521 42.2505 16.7843 42.5317 17.0651L42.6803 16.9163ZM41.5631 16.2014L41.636 16.0042C41.1909 15.8396 40.5794 15.6651 39.7194 15.4551L39.6696 15.6594L39.6197 15.8637C40.4754 16.0726 41.0682 16.2426 41.4902 16.3986L41.5631 16.2014ZM39.6696 15.6594L39.7168 15.4545C38.8886 15.2636 38.1498 15.0434 37.5208 14.8002L37.4449 14.9963L37.3691 15.1925C38.0208 15.4444 38.7794 15.67 39.6223 15.8643L39.6696 15.6594ZM37.4449 14.9963L37.5208 14.8002C36.9679 14.5865 36.5131 14.2692 36.1252 13.829L35.9674 13.968L35.8096 14.107C36.2424 14.5981 36.7535 14.9545 37.3691 15.1925L37.4449 14.9963ZM35.9674 13.968L36.1252 13.829C35.7533 13.407 35.5605 12.8342 35.5605 12.0491H35.3502H35.1399C35.1399 12.9047 35.3517 13.5873 35.8096 14.107L35.9674 13.968ZM35.3502 12.0491L35.5605 12.0491C35.5606 11.451 35.7216 10.9002 36.0378 10.409L35.861 10.2952L35.6841 10.1813C35.3235 10.7416 35.14 11.3717 35.1399 12.0491L35.3502 12.0491ZM35.861 10.2952L36.0377 10.409C36.3591 9.91012 36.8433 9.50517 37.4867 9.20992L37.399 9.0188L37.3114 8.82768C36.607 9.15088 36.0556 9.60464 35.6842 10.1813L35.861 10.2952ZM37.399 9.0188L37.4824 9.21185C38.1582 8.92002 38.9854 8.76818 39.9469 8.76814L39.9469 8.55786L39.9469 8.34758C38.9431 8.34762 38.0564 8.50589 37.3157 8.82575L37.399 9.0188ZM77.8033 8.62817V8.83845C78.0743 8.83845 78.2942 9.05837 78.2942 9.32935H78.5045H78.7148C78.7148 8.8261 78.3066 8.41789 77.8033 8.41789V8.62817ZM78.5045 9.32935H78.2942V20.8245H78.5045H78.7148V9.32935H78.5045ZM78.5045 20.8245L78.2942 20.8244C78.2942 21.0954 78.0742 21.3154 77.8033 21.3154V21.5256V21.7359C78.3066 21.7359 78.7146 21.3276 78.7148 20.8245L78.5045 20.8245ZM77.8033 21.5256L77.8035 21.3154C77.533 21.3152 77.3135 21.0955 77.3134 20.8244L77.1031 20.8245L76.8929 20.8245C76.893 21.3272 77.3 21.7356 77.8032 21.7359L77.8033 21.5256ZM77.1031 20.8245H77.3134V9.32935H77.1031H76.8929V20.8245H77.1031ZM77.1031 9.32935H77.3134C77.3134 9.05825 77.5328 8.83861 77.8035 8.83845L77.8033 8.62817L77.8032 8.41789C77.3 8.41819 76.8929 8.82649 76.8929 9.32935H77.1031ZM71.776 8.62817L71.7759 8.83845C72.0465 8.83856 72.2659 9.05815 72.2659 9.32935H72.4762H72.6865C72.6865 8.82649 72.2794 8.41808 71.7761 8.41789L71.776 8.62817ZM72.4762 9.32935L72.2659 9.3292C72.2657 9.60005 72.0466 9.81916 71.7759 9.81926L71.776 10.0295L71.7761 10.2398C72.279 10.2396 72.6861 9.83225 72.6865 9.32949L72.4762 9.32935ZM71.776 10.0295V9.81926H64.6959V10.0295V10.2398H71.776V10.0295ZM64.6959 10.0295L64.696 9.81926C64.4253 9.81912 64.2062 9.59998 64.206 9.3292L63.9957 9.32935L63.7854 9.32949C63.7858 9.83225 64.1929 10.2396 64.6958 10.2398L64.6959 10.0295ZM63.9957 9.32935H64.206C64.206 9.05822 64.4254 8.83859 64.696 8.83845L64.6959 8.62817L64.6958 8.41789C64.1925 8.41816 63.7854 8.82649 63.7854 9.32935H63.9957ZM64.6959 8.62817V8.83845H71.776V8.62817V8.41789H64.6959V8.62817Z" fill="#0091FF" mask="url(#path-7-outside-1_230_148)"/>
<path d="M97.3948 19.9421H104.054C104.557 19.9423 104.965 20.3501 104.965 20.8532C104.965 21.3563 104.557 21.7642 104.054 21.7643H97.3948C96.8915 21.7643 96.4837 21.3564 96.4836 20.8532C96.4836 20.35 96.8915 19.9421 97.3948 19.9421Z" fill="#0091FF" stroke="#0091FF" stroke-width="0.0700934"/>
<path d="M97.3948 8.58655H103.353C103.856 8.5866 104.264 8.99446 104.264 9.49768C104.264 10.0009 103.856 10.4088 103.353 10.4088H97.3948C96.8915 10.4088 96.4837 10.0009 96.4836 9.49768C96.4836 8.99443 96.8915 8.58655 97.3948 8.58655Z" fill="#0091FF" stroke="#0091FF" stroke-width="0.0700934"/>
<path d="M97.3948 14.124H101.95C102.454 14.124 102.862 14.5318 102.862 15.0351C102.862 15.5383 102.454 15.9462 101.95 15.9462H97.3948C96.8915 15.9462 96.4837 15.5383 96.4836 15.0351C96.4836 14.5318 96.8915 14.124 97.3948 14.124Z" fill="#0091FF" stroke="#0091FF" stroke-width="0.0700934"/>
<circle cx="53.9719" cy="15.0749" r="5.8528" stroke="#0091FF" stroke-width="1.61215"/>
<defs>
<linearGradient id="paint0_linear_230_148" x1="10.1212" y1="-1.99523" x2="23.4331" y2="33.967" gradientUnits="userSpaceOnUse">
<stop stop-color="#0091FF"/>
<stop offset="1" stop-color="#004477"/>
</linearGradient>
</defs>
</svg>
