<svg width="42" height="42" viewBox="0 0 42 42" fill="none" xmlns="http://www.w3.org/2000/svg">
<path d="M36.75 21C36.75 12.3047 29.6953 5.25 21 5.25C12.3047 5.25 5.25 12.3047 5.25 21C5.25 29.6953 12.3047 36.75 21 36.75C29.6953 36.75 36.75 29.6953 36.75 21Z" stroke="white" stroke-opacity="0.9" stroke-width="2" stroke-miterlimit="10"/>
<path d="M18.2001 26.885L26.6159 21.6977C26.7332 21.6248 26.8301 21.5223 26.8974 21.4001C26.9647 21.278 27 21.1402 27 21C27 20.8598 26.9647 20.7221 26.8974 20.5999C26.8301 20.4777 26.7332 20.3752 26.6159 20.3023L18.2001 15.115C18.0794 15.0412 17.9418 15.0016 17.8011 15C17.6605 14.9985 17.522 15.0352 17.3999 15.1063C17.2778 15.1774 17.1763 15.2803 17.1061 15.4046C17.0358 15.5289 16.9992 15.67 17 15.8135V26.1865C16.9992 26.33 17.0358 26.4711 17.1061 26.5954C17.1763 26.7197 17.2778 26.8226 17.3999 26.8937C17.522 26.9648 17.6605 27.0015 17.8011 27C17.9418 26.9984 18.0794 26.9588 18.2001 26.885Z" fill="white" fill-opacity="0.9"/>
</svg>
