<svg width="20" height="25" viewBox="0 0 20 25" fill="none" xmlns="http://www.w3.org/2000/svg">
<path d="M6.26367 1.97833L9.89867 0L13.5353 1.97833L13.5437 7.45333L9.91034 8.065L6.26367 7.44833V1.97833Z" fill="#727272"/>
<path d="M1.345 4.30493L5.36167 5.45493V8.2166L8.12167 8.68327L5.37667 8.9916V16.0749L8.13167 16.3999L5.37667 16.9166V19.7416L1.345 20.7866V20.7733L0 20.1566V4.94827L1.345 4.3316V4.30493ZM14.4433 16.9166V20.3283L18.2833 20.7816L20 19.7916V5.31326L18.2833 4.32327L14.44 4.7766L14.445 8.22326L11.7033 8.68493L14.4433 8.9916V16.0749L11.6917 16.3999L14.4433 16.9166Z" fill="#727272"/>
<path d="M6.27803 17.6718L9.9147 16.9901L13.543 17.6734V23.0401L9.9097 25.0001L6.27637 23.0401V17.6734L6.27803 17.6718ZM6.27803 9.8051L9.91137 9.39844L13.543 9.8051V15.2668L9.9097 15.6951L6.27637 15.2668V9.8051H6.27803Z" fill="#727272"/>
</svg>
