<svg width="36" height="36" viewBox="0 0 36 36" fill="none" xmlns="http://www.w3.org/2000/svg">
<path d="M14.4947 1.93262C14.4947 1.93262 19.267 5.97658 18.6185 9.56101C18.3299 11.1559 16.1445 13.7915 17.3216 16.2919C18.5962 18.9911 19.2559 24.1906 13.524 22.8445C7.87032 21.5199 8.31102 14.8092 12.5116 11.2681C16.7707 7.67689 15.3329 3.72618 14.4947 1.93262Z" fill="#D30035"/>
<path d="M18.8529 14.0586C18.5363 16.7888 21.6519 19.5083 19.1792 23.2035C17.4639 25.7634 20.0941 29.36 23.4718 28.7045C27.1759 27.9868 28.0921 25.7175 27.9931 23.0819C27.8634 19.7353 26.4897 18.8054 23.4328 16.2928C20.1276 13.5734 22.6825 8.44141 22.6825 8.44141C22.6825 8.44141 19.2071 11.0554 18.8529 14.0586Z" fill="#D30035"/>
<path d="M8.79069 22.0467C9.83664 23.2929 11.8588 24.7607 15.7302 24.8445C16.9017 24.8661 15.9869 26.9841 18.3298 28.8898C20.3561 30.5428 23.0854 30.5793 24.5455 30.0454C25.3963 29.74 26.1954 29.444 25.5803 30.2103C22.8288 33.6258 18.0509 33.4095 14.6411 32.1742C10.5883 30.7064 9.56888 27.818 8.90505 26.0177C8.19101 24.0646 8.5564 21.7669 8.79069 22.0467Z" fill="#D30035"/>
</svg>
