<svg width="36" height="37" viewBox="0 0 36 37" fill="none" xmlns="http://www.w3.org/2000/svg">
<path d="M32.0632 23.7085L28.7603 29.4886C28.4665 29.9623 28.054 30.351 27.5637 30.6161C27.0734 30.8812 26.5224 31.0136 25.9652 31.0002H10.0362C9.47899 31.0136 8.92792 30.8812 8.43764 30.6161C7.94735 30.351 7.53488 29.9623 7.24112 29.4886L5.88477 27.1147L11.4984 23.7085H32.0632Z" fill="#4285F4"/>
<path d="M14.2311 6.13525C13.4809 6.40444 12.8507 6.93151 12.4532 7.62233L4.41534 21.3748C4.12251 21.8491 3.95873 22.3917 3.94024 22.9488C3.92175 23.5058 4.04919 24.0581 4.30992 24.5507L5.90367 27.1193L11.4974 23.7081L17.9996 12.5832L14.2311 6.13525Z" fill="#00AC47"/>
<path d="M11.4982 23.7085H4.00879C4.06305 24.0039 4.16508 24.2885 4.31087 24.5511L5.89629 27.1077L5.88431 27.1149L7.24097 29.4887C7.56588 30.0257 8.05388 30.4448 8.63378 30.6849L11.4982 23.7085Z" fill="#0066DA"/>
<path d="M21.7579 6.13525C22.5081 6.40442 23.1382 6.93149 23.5356 7.62233L31.5737 21.3748C31.8666 21.8491 32.0304 22.3917 32.0489 22.9487C32.0674 23.5058 31.94 24.0581 31.6792 24.5507L30.086 27.1193L24.4915 23.7081L17.9893 12.5832L21.7579 6.13525Z" fill="#FFBA00"/>
<path d="M24.4912 23.7085H31.9808C31.9265 24.0039 31.8245 24.2885 31.6787 24.5511L30.0929 27.1078L30.105 27.1151L28.7485 29.4887C28.4236 30.0257 27.9356 30.4448 27.3557 30.6849L24.4912 23.7085Z" fill="#EA4435"/>
<path d="M21.7666 6.13979L21.769 6.13562C21.6461 6.09307 21.5205 6.05886 21.393 6.03323L18.0004 6L14.6078 6.03323C14.4804 6.05886 14.3548 6.09307 14.2319 6.13562C14.1008 6.1849 13.973 6.24288 13.8496 6.30917L17.9889 12.5833L22.1431 6.31177C22.0215 6.24627 21.8957 6.18882 21.7666 6.13979Z" fill="#188038"/>
</svg>
