<svg width="36" height="37" viewBox="0 0 36 37" fill="none" xmlns="http://www.w3.org/2000/svg">
<g clip-path="url(#clip0_406_5858)">
<path d="M26.5854 21.9962L19.3301 25.8657V18.7313L26.5854 14.8618V21.9962Z" fill="#8CD211"/>
<path d="M16.9119 26.2288L9.89844 22.6011V15.104L16.9119 18.7316V26.2288Z" fill="#20343E"/>
<path d="M31.6639 11.1135L23.9249 7.12305L21.2646 8.5741L29.1245 12.5645L29.0036 27.4379L31.6639 25.9868V11.1135Z" fill="#5AAAFA"/>
<path d="M26.7064 24.6563L18.0001 29.3722L4.33594 22.6006V25.9864L18.0001 32.9998L26.7064 28.5257V24.6563Z" fill="#8CD211"/>
<path d="M21.7486 6.15576L18.0001 4.1001L4.33594 11.1135V19.699L7.4799 21.3919V13.4111L21.7486 6.15576Z" fill="#20343E"/>
<path d="M18 16.676L11.833 13.4112L18.9674 9.6626L25.0135 12.9275L18 16.676Z" fill="#5AAAFA"/>
</g>
<defs>
<clipPath id="clip0_406_5858">
<rect width="36" height="37" fill="white"/>
</clipPath>
</defs>
</svg>
