<svg width="36" height="36" viewBox="0 0 36 36" fill="none" xmlns="http://www.w3.org/2000/svg">
<mask id="mask0_406_5751" style="mask-type:alpha" maskUnits="userSpaceOnUse" x="2" y="8" width="32" height="20">
<path d="M9.82979 28C5.50549 28 2 24.5675 2 20.3333C2 16.1921 5.35322 12.8179 9.54613 12.6716C11.2754 9.87166 14.4144 8 18 8C22.6308 8 26.5169 11.1218 27.5829 15.3335C31.1316 15.3603 34 18.1855 34 21.6667C34 25.0527 31 28 27.8723 27.9914L9.82979 28Z" fill="#C4C4C4"/>
</mask>
<g mask="url(#mask0_406_5751)">
<path d="M9.83017 28.0001C7.37824 28.0001 5.18957 26.8966 3.75391 25.1691L20.0429 18.3335L32.7089 25.4647C31.5926 26.9211 29.9066 28.0001 28.0004 27.9915C25.1254 28.0001 14.0629 28.0001 9.83017 28.0001Z" fill="url(#paint0_linear_406_5751)"/>
<path d="M27.5785 15.3149L20.043 18.3334L32.709 25.4647C33.5199 24.4065 34.0004 23.0916 34.0004 21.6669C34.0004 18.1857 31.1321 15.3605 27.5833 15.3337C27.5817 15.3274 27.5801 15.3212 27.5785 15.3149Z" fill="url(#paint1_linear_406_5751)"/>
<path d="M9.06445 12.7028L20.0423 18.3333L27.5779 15.3148C26.5051 11.1126 22.6237 8 17.9997 8C14.4141 8 11.2751 9.87166 9.54586 12.6716C9.3841 12.6773 9.22358 12.6877 9.06445 12.7028Z" fill="url(#paint2_linear_406_5751)"/>
<path d="M3.7535 25.1687L20.0425 18.3331L9.06471 12.7026C5.09947 13.0792 2 16.3517 2 20.3331C2 22.1665 2.6572 23.8495 3.7535 25.1687Z" fill="url(#paint3_linear_406_5751)"/>
</g>
<defs>
<linearGradient id="paint0_linear_406_5751" x1="6.42591" y1="26.6668" x2="29.2309" y2="25.2764" gradientUnits="userSpaceOnUse">
<stop stop-color="#2086B8"/>
<stop offset="1" stop-color="#46D3F6"/>
</linearGradient>
<linearGradient id="paint1_linear_406_5751" x1="25.8302" y1="21.6668" x2="32.2108" y2="17.2082" gradientUnits="userSpaceOnUse">
<stop stop-color="#1694DB"/>
<stop offset="1" stop-color="#62C3FE"/>
</linearGradient>
<linearGradient id="paint2_linear_406_5751" x1="10.5104" y1="9.33333" x2="25.3335" y2="17.9348" gradientUnits="userSpaceOnUse">
<stop stop-color="#0D3D78"/>
<stop offset="1" stop-color="#063B83"/>
</linearGradient>
<linearGradient id="paint3_linear_406_5751" x1="1.65957" y1="21.9998" x2="16.5634" y2="16.4649" gradientUnits="userSpaceOnUse">
<stop stop-color="#16589B"/>
<stop offset="1" stop-color="#1464B7"/>
</linearGradient>
</defs>
</svg>
