<svg width="23" height="23" viewBox="0 0 23 23" fill="none" xmlns="http://www.w3.org/2000/svg">
<path d="M11.5 0C17.8513 0 23 5.14873 23 11.5C23 17.8513 17.8513 23 11.5 23C5.14873 23 0 17.8513 0 11.5C0 5.14873 5.14873 0 11.5 0ZM7.1416 13.3672C7.03234 13.2158 6.86326 14.4069 7.19336 15.4062C7.49852 16.333 7.97139 17.8182 9.83887 18.5723C11.4109 19.2101 13.6131 19.3239 14.8818 17.5625C15.1731 17.168 14.7892 17.322 14.4053 17.4795C13.9194 17.6452 13.4026 17.6773 12.9023 17.5732C12.4023 17.4692 11.9335 17.2325 11.5391 16.8838C10.4594 15.9098 10.881 14.8184 10.3398 14.8057C8.55465 14.7642 7.62338 14.0092 7.1416 13.3672ZM13.5459 6.35449C13.5459 6.35449 11.9423 7.70108 11.7734 9.24707C11.6281 10.6517 13.0634 12.0519 11.9219 13.9551C11.1404 15.2725 12.3483 17.1268 13.9082 16.7891C15.6129 16.4211 16.0423 15.2525 15.9971 13.8955C15.9376 12.1732 15.3024 11.6927 13.8965 10.4004C12.3688 9.00377 13.5459 6.35449 13.5459 6.35449ZM9.77148 3C10.1553 3.92454 10.7923 5.99041 8.85547 7.80859C6.91876 9.62682 6.71823 13.0894 9.32422 13.7656C11.9673 14.4576 11.6626 11.7789 11.0752 10.3906C10.5299 9.10206 11.5395 7.75513 11.6719 6.92383C11.9655 5.08206 9.77148 3 9.77148 3Z" fill="#727272"/>
</svg>
