<svg width="36" height="36" viewBox="0 0 36 36" fill="none" xmlns="http://www.w3.org/2000/svg">
<path d="M28.712 10.0039L32.5002 16.5901C32.6577 16.8676 32.8453 17.1377 32.9278 17.4603C33.0026 17.7286 33.0219 18.0093 32.9845 18.2853C32.9471 18.5613 32.8538 18.8268 32.7102 19.0655L26.2516 30.3176C25.8765 30.9702 25.3064 31.3228 24.5487 31.3303C22.8834 31.3378 21.2181 31.3303 19.5528 31.3303C19.4928 31.2178 19.5603 31.1352 19.6129 31.0527C20.1905 30.04 20.7756 29.0424 21.3457 28.0297C21.7507 27.3546 22.1333 26.6644 22.5234 25.9818C23.131 25.0066 23.6786 24.0014 24.2562 23.0113C25.1414 21.481 26.0115 19.9432 26.9117 18.4279C27.0992 18.1129 27.0992 17.8803 26.9117 17.5728C25.5089 15.1798 24.1362 12.7644 22.7484 10.364C22.7043 10.2938 22.6642 10.2212 22.6284 10.1464C22.5834 10.0414 22.5984 9.9664 22.7184 9.93639C22.8372 9.91492 22.958 9.90737 23.0785 9.91389H28.2469C28.3574 9.90955 28.4681 9.9171 28.577 9.93639C28.6263 9.94888 28.6724 9.97191 28.712 10.0039Z" fill="#D64438"/>
<path d="M9.7114 30.2348C9.07379 29.1396 8.44367 28.0519 7.81356 26.9492C6.32079 24.3538 4.84302 21.7508 3.34274 19.1628C2.90767 18.4127 2.87766 17.6851 3.30524 16.9349L5.73568 12.7042C5.76387 12.7034 5.79176 12.71 5.81671 12.7231C5.84167 12.7362 5.86284 12.7555 5.87821 12.7792C6.86088 14.4895 7.85857 16.2073 8.84124 17.9176C9.45636 19.0353 10.1015 20.1305 10.7391 21.2407L13.4396 25.9516C13.5596 26.1466 13.7471 26.2891 13.9047 26.4467C14.6998 27.2643 15.525 28.0519 16.4401 28.7196C16.8373 29.0038 17.1634 29.3761 17.3928 29.8073C17.4614 29.9312 17.5008 30.0692 17.508 30.2107C17.5152 30.3521 17.49 30.4934 17.4342 30.6237C17.3785 30.7539 17.2938 30.8697 17.1865 30.9622C17.0792 31.0547 16.9522 31.1215 16.8152 31.1575C16.5999 31.2145 16.3778 31.2423 16.1551 31.24H11.6393C10.8591 31.24 10.244 30.9475 9.79392 30.3099C9.77228 30.2791 9.7441 30.2535 9.7114 30.2348Z" fill="#FECD43"/>
<path d="M9.71094 30.2348C9.78595 30.1598 9.80095 30.2423 9.83096 30.2798C10.2885 30.8799 10.8811 31.18 11.6388 31.1725C13.1166 31.165 14.6018 31.165 16.0796 31.1725C16.3011 31.1738 16.5221 31.1537 16.7397 31.1125C16.8754 31.0871 17.0028 31.0289 17.1109 30.943C17.219 30.8572 17.3045 30.7462 17.36 30.6198C17.4154 30.4933 17.4392 30.3553 17.4291 30.2176C17.4191 30.0799 17.3755 29.9468 17.3023 29.8297C17.1823 29.6347 17.1073 29.4172 16.9423 29.2446C16.6272 28.9221 16.2446 28.6895 15.8996 28.4045C15.1646 27.801 14.4727 27.1468 13.8292 26.4466C13.854 26.4263 13.883 26.4117 13.9142 26.404C13.9453 26.3962 13.9777 26.3954 14.0092 26.4016C15.0294 26.4466 16.0571 26.4241 17.0848 26.4166C17.8963 26.4245 18.7061 26.4922 19.5077 26.6192C20.1378 26.7092 20.6329 27.0692 21.053 27.5118C21.1955 27.6618 21.4131 27.7969 21.3831 28.0594L19.6577 31.09C19.6127 31.1725 19.5527 31.24 19.5377 31.3375H11.3312C10.7311 31.33 9.94348 30.8649 9.71094 30.2348Z" fill="#F2BC3C"/>
<path d="M5.81037 12.7792L5.73535 12.7042L7.57319 9.47108C8.26331 8.25586 8.97594 7.05564 9.65856 5.84042C10.1011 5.04527 10.7388 4.6552 11.6614 4.6627C15.9297 4.67021 20.198 4.67021 24.4663 4.6627C25.2764 4.6627 25.884 5.01527 26.2891 5.7204L28.577 9.73362C28.6295 9.82364 28.667 9.91366 28.712 10.0037H28.607C28.4645 9.92866 28.4045 9.78613 28.3295 9.66611C27.6093 8.43589 26.9117 7.19816 26.1991 5.96044C25.7865 5.24031 25.1639 4.91025 24.3462 4.91025H11.6614C10.8213 4.91025 10.1912 5.25531 9.76358 5.99795C8.91593 7.49072 8.06828 8.99099 7.20562 10.4763C6.82305 11.0764 6.48549 11.714 6.12542 12.3291C6.03541 12.4641 5.96039 12.6066 5.87788 12.7492C5.86973 12.7591 5.85939 12.7669 5.84767 12.7722C5.83595 12.7774 5.82318 12.7798 5.81037 12.7792Z" fill="#6FA1F5"/>
<path d="M22.6364 10.0186L22.2763 9.99611H17.1079C17.0328 9.82358 17.1679 9.71856 17.2504 9.60604C17.918 8.63836 18.3006 7.55066 18.4956 6.40296C18.5481 6.08289 18.5782 5.75954 18.5856 5.43528C18.5931 5.09022 18.6381 5.08272 18.9682 5.03021C20.0409 4.86518 21.1211 4.89518 22.2013 4.86518C22.2286 4.86222 22.2545 4.85184 22.2763 4.83517C22.9214 4.83517 23.574 4.85017 24.2191 4.82767C25.1493 4.80517 25.8469 5.15773 26.312 5.99038C27.0622 7.33312 27.8423 8.66087 28.6074 9.99611H22.6364V10.0186Z" fill="#4989F3"/>
<path d="M13.3867 25.9966H22.1933L22.5534 26.0116C22.1933 26.7092 21.8032 27.3918 21.3832 28.052C21.0981 27.6019 20.708 27.2718 20.2655 26.9793C19.8229 26.6867 19.3728 26.6717 18.9077 26.6117C17.3549 26.4092 15.7947 26.5292 14.2419 26.4917C14.106 26.4817 13.9707 26.4642 13.8368 26.4392C13.6661 26.3142 13.5145 26.1651 13.3867 25.9966Z" fill="#DEA73A"/>
<path d="M8.94612 17.6702C8.8786 17.7528 8.8786 17.8803 8.78109 17.9478L5.81055 12.7794H5.83305C5.93057 12.7568 5.99058 12.8244 6.05059 12.8769C6.69571 13.4545 7.2133 14.1221 7.55086 14.9322C7.88842 15.7424 8.33851 16.4325 8.72858 17.1827C8.81859 17.3327 8.96112 17.4752 8.94612 17.6702Z" fill="#3D67C7"/>
<path d="M22.2762 4.82764C22.2568 4.84729 22.2333 4.86224 22.2072 4.87135C22.1812 4.88045 22.1535 4.88346 22.1261 4.88015C21.301 4.91765 20.4758 4.94766 19.6507 4.99267C19.3581 5.00767 19.0806 5.12769 18.7805 5.11269C18.6305 5.10519 18.668 5.25521 18.668 5.34523C18.641 6.57284 18.3357 7.77831 17.7753 8.87087C17.5803 9.25344 17.3328 9.61351 17.1152 9.98107C15.9675 9.98107 14.8198 9.99608 13.6721 9.98107C13.5828 9.97138 13.4926 9.99009 13.4145 10.0345C13.3364 10.079 13.2743 10.1469 13.237 10.2286C12.3594 11.7814 11.4667 13.3267 10.574 14.872C10.5365 14.932 10.4915 14.992 10.454 15.052C10.2215 14.8945 10.1164 14.6469 9.98142 14.4144C9.88901 14.2334 9.7554 14.0767 9.59135 13.9568C9.53269 13.9252 9.4835 13.8786 9.44882 13.8218C9.20878 13.3492 8.81871 12.9741 8.53366 12.524C8.24861 12.074 7.86604 11.5339 7.57348 11.0088C7.46096 10.8062 7.23592 10.6937 7.1084 10.4987L8.53366 8.00071C8.93123 7.29558 9.3438 6.59046 9.74888 5.88533C10.154 5.1802 10.7616 4.83514 11.5417 4.83514C15.1199 4.82764 18.698 4.82764 22.2762 4.82764Z" fill="#4F8DF4"/>
<path d="M7.10847 10.4985C7.52105 10.6936 7.68608 11.0986 7.91862 11.4512C8.27118 11.9988 8.58624 12.5689 9.02132 13.0565C9.09774 13.1475 9.16554 13.2455 9.22386 13.3491C9.37388 13.6041 9.50141 13.8666 9.77146 14.0242C9.92899 14.1142 9.97399 14.3017 10.064 14.4518C10.154 14.6018 10.3191 14.8568 10.4466 15.0594C10.1615 15.5845 9.88398 16.1096 9.55392 16.6046C9.05133 16.0795 8.57874 15.5244 8.09865 14.9844C7.46104 14.2792 6.98095 13.4541 6.42585 12.6889C6.3155 12.5523 6.18963 12.4289 6.05078 12.3214L7.10847 10.4985Z" fill="#4880E5"/>
<path d="M6.05055 12.3291C6.3206 12.3291 6.40311 12.5691 6.53063 12.7417C7.09324 13.4993 7.55832 14.3245 8.21094 15.0221C8.64602 15.4872 9.05109 15.9673 9.47117 16.4473C9.52001 16.492 9.5496 16.5538 9.55368 16.6199C9.37421 16.9852 9.17124 17.3385 8.94607 17.6776C8.41348 16.7324 7.85087 15.8022 7.4233 14.8046C7.07823 13.9869 6.48563 13.3568 5.83301 12.7792C5.85551 12.5992 5.96803 12.4716 6.05055 12.3291Z" fill="#4379E0"/>
<path d="M27.1149 17.8055L25.8397 15.5926L22.6366 10.0191C22.5616 9.90658 22.449 9.91408 22.3365 9.91408C20.6187 9.91408 18.9009 9.89908 17.1906 9.92158C16.0454 9.93158 14.8977 9.93158 13.7475 9.92158C13.4549 9.92158 13.2749 10.0266 13.1249 10.2891C12.2297 11.8644 11.327 13.4347 10.4169 15C10.1243 15.5326 9.81675 16.0652 9.51669 16.5903C9.31416 16.9354 9.11912 17.2879 8.90908 17.633C8.83992 17.7273 8.79836 17.839 8.78906 17.9555C8.81091 18.0144 8.83595 18.072 8.86408 18.1281L13.3874 25.997C13.5082 26.0655 13.6465 26.0968 13.785 26.087H22.1865C22.314 26.087 22.449 26.0945 22.5616 26.012C22.6741 25.9295 22.6741 25.892 22.7116 25.8245C24.1819 23.269 25.6546 20.7135 27.1299 18.1581C27.2124 18.0155 27.1824 17.9255 27.1149 17.8055ZM17.9182 22.0588C15.7428 22.0663 13.86 20.1759 13.9275 17.9555C13.995 15.7351 15.7428 14.0323 17.9407 14.0398C20.1386 14.0473 21.9765 15.8402 21.8864 18.1206C21.9615 20.1609 20.1386 22.0513 17.9182 22.0588Z" fill="#EDEDED"/>
</svg>
