<svg width="36" height="39" viewBox="0 0 36 39" fill="none" xmlns="http://www.w3.org/2000/svg">
<path fill-rule="evenodd" clip-rule="evenodd" d="M28.9127 8.70605L23.1367 19.5686L28.9127 30.4311L31.2788 29.1248V10.0123L28.9127 8.70605Z" fill="#E25444"/>
<path fill-rule="evenodd" clip-rule="evenodd" d="M28.9128 8.70605L17.3608 10.0123L11.4805 19.5686L17.3608 29.1248L28.9128 30.4311V8.70605Z" fill="#7B1D13"/>
<path fill-rule="evenodd" clip-rule="evenodd" d="M5.59964 8.70605L3.7207 9.53105V29.6061L5.59964 30.4311L17.3604 19.5686L5.59964 8.70605Z" fill="#58150D"/>
<path fill-rule="evenodd" clip-rule="evenodd" d="M5.57422 8.68311L17.3758 11.922V27.5053L5.57422 30.4386V8.68311Z" fill="#E25444"/>
<path fill-rule="evenodd" clip-rule="evenodd" d="M17.3831 13.6335L12.3721 12.839L17.3831 7.2168L22.3818 12.839L17.3831 13.6335Z" fill="#58150D"/>
<path fill-rule="evenodd" clip-rule="evenodd" d="M22.3818 12.839L17.3769 13.6457L12.3721 12.839V7.2168" fill="#58150D"/>
<path fill-rule="evenodd" clip-rule="evenodd" d="M17.3831 25.4277L12.3721 26.3444L17.3831 31.1722L22.3818 26.3444L17.3831 25.4277Z" fill="#58150D"/>
<path fill-rule="evenodd" clip-rule="evenodd" d="M17.3601 3L12.3496 5.6125V12.8313L17.3757 11.4334L17.3601 3Z" fill="#7B1D13"/>
<path fill-rule="evenodd" clip-rule="evenodd" d="M17.3769 15.4053L12.3721 15.9431V23.1507L17.3769 23.7164V15.4053Z" fill="#7B1D13"/>
<path fill-rule="evenodd" clip-rule="evenodd" d="M17.3769 27.5669L12.3721 26.3271V33.4127L17.3769 36.0003V27.5669Z" fill="#7B1D13"/>
<path fill-rule="evenodd" clip-rule="evenodd" d="M22.3818 26.3271L17.377 27.5673V36.0003L22.3818 33.4127V26.3271Z" fill="#E25444"/>
<path fill-rule="evenodd" clip-rule="evenodd" d="M17.377 15.4053L22.3818 15.9431V23.1507L17.377 23.7164V15.4053Z" fill="#E25444"/>
<path fill-rule="evenodd" clip-rule="evenodd" d="M17.3604 3L22.3708 5.6125V12.8313L17.3604 11.4563V3Z" fill="#E25444"/>
</svg>
