<svg width="21" height="21" viewBox="0 0 21 21" fill="none" xmlns="http://www.w3.org/2000/svg">
<path d="M17.9246 3.07538C15.9555 1.10625 13.2848 0 10.5 0C7.71523 0 5.04451 1.10625 3.07538 3.07538C1.10625 5.04451 0 7.71523 0 10.5C0 13.2848 1.10625 15.9555 3.07538 17.9246C5.04451 19.8938 7.71523 21 10.5 21C13.2848 21 15.9555 19.8938 17.9246 17.9246C19.8938 15.9555 21 13.2848 21 10.5C21 7.71523 19.8938 5.04451 17.9246 3.07538ZM19.0593 9.54664L14.5381 5.44378L9.91151 9.81307L7.48339 12.0975V8.6922L11.1656 5.19276L13.9159 2.59402C15.3088 3.19839 16.5177 4.15936 17.4207 5.38002C18.3237 6.60068 18.8889 8.03786 19.0593 9.54664ZM18.9789 12.023C18.8176 12.9253 18.5124 13.7959 18.0749 14.6014L15.4991 12.252V8.84642L18.9789 12.023ZM11.8169 1.98535L9.87115 3.82416L7.47683 6.09477V2.43488C8.86206 1.91527 10.3577 1.7607 11.8199 1.98601L11.8169 1.98535ZM5.5934 12.1592L2.02473 8.95536C2.19223 8.03657 2.50902 7.1514 2.9625 6.33496L5.59406 8.6968L5.5934 12.1592ZM5.5934 3.4268V6.16171L4.06106 4.78687C4.51607 4.27422 5.03046 3.81787 5.5934 3.4268ZM1.93285 11.4038L6.55743 15.552L13.6075 8.91664V12.2628L7.10408 18.4152C5.69786 17.81 4.47788 16.8418 3.56922 15.6097C2.66056 14.3776 2.09559 12.926 1.93285 11.4038ZM9.20736 19.0183L13.6091 14.8563V18.5339C12.6181 18.9187 11.5642 19.1155 10.5011 19.1144C10.0676 19.1148 9.63454 19.0827 9.20571 19.0186L9.20736 19.0183ZM15.4942 17.5171V14.7963L16.9954 16.1554C16.5511 16.666 16.0489 17.1231 15.4988 17.5174L15.4942 17.5171Z" fill="#727272"/>
</svg>
