<svg width="21" height="17" viewBox="0 0 21 17" fill="none" xmlns="http://www.w3.org/2000/svg">
<path d="M10.6669 0.0021482C6.90714 -0.0839761 3.57069 2.42754 2.58629 6.09246C2.63092 6.07524 2.53838 6.10306 2.58629 6.09246C-0.804637 8.34561 -0.845325 13.2554 2.37103 15.7576L2.37432 15.751L2.36775 15.7788C3.39678 16.5619 4.64762 16.9799 5.93653 16.9759H10.4621L10.4897 16.9998H15.0324C20.8843 17.0481 23.2357 9.40162 18.3892 6.09246C17.9724 4.53626 17.114 3.13906 15.9216 2.07244L15.8842 2.11021L15.8875 2.06516C14.4417 0.777929 12.5924 0.0465354 10.6682 0.00148575L10.6669 0.0021482ZM10.3525 3.66641C11.4393 3.62864 12.5569 3.99103 13.4016 4.68069C14.4575 5.57108 15.0593 6.89607 15.0317 8.28333V8.74244C18.1214 8.68016 18.1214 13.3905 15.0317 13.3282H10.489L10.4825 13.3349V13.3004H5.93653C5.61496 13.3004 5.29732 13.2315 5.00332 13.097C3.55756 12.4378 3.21237 10.5192 4.33327 9.3844C5.45811 8.25286 7.35472 8.60133 8.01098 10.0608L10.6465 7.40023C9.77175 6.24748 8.50712 5.45779 7.09549 5.17822C7.11256 5.17159 7.12962 5.15768 7.1434 5.16099C7.9703 4.24344 9.12926 3.70483 10.3565 3.66707L10.3525 3.66641Z" fill="#727272"/>
</svg>
